/* XPM */
static char *stonebrick_carved1687107238[] = {
/* columns rows colors chars-per-pixel */
"64 64 7 1 ",
"  c #5A595A",
". c gray39",
"X c #6A6D6A",
"o c #787678",
"O c gray50",
"+ c #8B898B",
"@ c #9C999C",
/* pixels */
"@@@@@@@@@@@@@@@@@@@@++@@+++++@@@@@@@@@@@@@@@@@++@@@@@++@@@@@@@@X",
"@++OOO+++++OOO+++++++++OO+++++O++++++O++OOO++O+OO++O++OO++++++X ",
"@+OO+++++OOO++++O++++O++++++OO++OOO+++OOO++++++O++++OOOooO++O+. ",
"++O+++++OO+++++++OoOO+++++OOO++++OoOooO+++OO+O++++O+++oO++++oO. ",
"+O++O++O+OoO+O++++Oo+O++OO+++++O++O++OoooOO+++OOOo++O+++O++OOo  ",
"+++++OO+++O+O++OO++O++OOO+++OOO++OOO+++++++OO+++OOoooO++++O+Oo  ",
"++O+OO++OoooOoooOOOooOo++OOooO+OO++OOOO+O+OOooOO+OOoO++OO+oooO  ",
"++OOoOO+ooOOOOOOoXXXooOOOoOOXoOOoOO+OooO+++++OooO++++OoO+OOoXo  ",
"+++oO+OO.... ..   ...   .     . ..    .  .....   ....X++++OOoX  ",
"+++O++Oo.                                           ..O++OoOoX. ",
"++O+OOO+. @@@@@@@@@@@@@@++@@+@+++@@+@@@@@@@@+++@@+@@. +O+OooOo. ",
"++++OO+o  @++++++++++OOO++++++++++++++++++++++++++++. OoOO+oOO. ",
"+++O+oOo  @++++O++O+++++OOOO++O++OOoO+++OO+OoOoO++O+. Ooo+OO+O. ",
"+O+OOOOO  @++OO++++OO+OOO++++++OOO+OooOO+++++++OOO++. +Oo+O++O. ",
"++OO+OOo  @+OO+++OOO++++++OO+OOO+++++O++OOO+O+OoO++O. Oo+OOO+O  ",
"++O+O+OO. @+++OOOoO++O+++OOoO++++OooO++O+++O+OoO++Oo. +O+OOoO+  ",
"+O+++++O. @++O+Ooo+OO+++O+OOooO+OOOoooOOOO++++++O+Oo. ++OOoOO+. ",
"+O+O++O+. @+++O+oOO++OO++OoooO+O+ooO+++++OOO+O+++OoX. O+O+OO+O. ",
"++OO+OO+. @O++O+O++O++OO+oOO+OOoOOOOOOoO++O+O+OO++XX. +OO+OOOO. ",
"@++O+O++  @o++OO+Oo++O+OOO++++OO++OO++OoOO+++OO++OXo. @+o+O+O+  ",
"++++OOoO  @o+O+O++OoO+++OoOooO+OO++++OO++OOoO+OO++oX. @+oO++O+. ",
"+O++OoOo  @O+O+oO+++OOOoooXoOoOooOOO+++O++oO++ooO+oX  @+Oo+++O. ",
"@+O++OOO  @+OO+Oo++OOoOOoooXXoooXXooooXoOO++++OoOOOo  @++O+o+O  ",
"@+O+O+Oo. @+O+++O+O++OooXXXoXXXXooooXXoooOOO+OO+oOoo  @O+++oOo  ",
"@+OO++oX. +++++++O++OOoX              +OO+OOO+O+oooX  @O+Ooo+o  ",
"@++O++oX. +OO+O+OO++oOXX              @O+++o+OO+OooX  @OO+Ooo+  ",
"@+++O+Oo  ++OO++O+O+OoXo      ..    ..@++O+OoO+OOoXX. @+O+Oooo. ",
"+++O++OO  @++++OoOOOoooX   .. .    ...@+OOO+Oo++OOXo. @+++OOoX. ",
"+O+++Ooo  +O++++OoOoOooo     . ......X@+++O+oo+OOooX  @+O++Ooo. ",
"+O+O+oOo  @O+O++O++OOooo    ..  .....X@+O++OoO+OoooX  @+OO++oo. ",
"+O++OO+o. @+OO+++O+OoOXo   .. .....X.X@++O+OO+O+oOoo  @++OOOoX. ",
"++O+oOOo. ++O++O+OO+OooX   ........XXX@++OO+O+++OOXo  @+O+OooX  ",
"@+O+OO+O  ++O++OOOOOOooX    .....X..XX@+OO+++O++O+XX. @++O+OXX. ",
"@+++OO++. ++++O+O+OOooXX   . .....XX.X@+O+O++O+Oo+oX. @++O++oX. ",
"@+OO++O+. +O+OO++OOooXXX  ......XXX..X@O++O+Oo+OoOoX  @++OO+oo  ",
"++oO+OOO. +OO+OO++OOOXoX   .. ...X..X.@O++OOooO+OooX  @+OO+ooo  ",
"+OO+OoO+  @+O++O+OO+oXoX     .XX..XXXX@++OOOoOO++OXX  @+O+++Xo  ",
"@+O+oOO+. @+++O+OO++oooX    .XXXXXXXXX@O+O+OOoO+O+oX  @++O+OoX. ",
"@++O+o++. @++Oo++O++OoXo+@@@@@@@@@@@@@+OOO+O+o+O++XX  @++o+OoX  ",
"@++++O+O  @O+Ooo++O++OooOOO+++++OOO+++O+O+O++O+O+OXX  @+OO+Ooo  ",
"@+O+++Oo  @O++OoO++OO+oOoO++OO++++OOO++++OO+Oo++OooX. @+O+OoOo  ",
"@+OoO++O  @OO+OO+Ooo++Oo+++OO+++OO+++++O+O++OO++ooXX. @+++oO+o. ",
"@++O++O+. @+O+O+++OooO++OO+++OOoO++O+OO++++++O+OoOXX. @++Oo+Oo. ",
"@++O++O+  @+O++++OoOOo+OO+++OO+Oo+OoOO++OO+O+OO+OOoX  @++OO+Oo  ",
"@+++OO++. +++O+O+O++OOO++OOO++O+OooOOOoO+oO+++OOOoXX. +++o++Oo. ",
"@+O+O++O. @++++OO++OoO++O+Ooo+++++ooXoOO++++O+OoOoXX  @+OO+OoO. ",
"@+oO+O+O. ++O+O+++OoXoOoOOooOO+OOooXoOO++OOooO+OooX.  +++OO+Oo  ",
"@+oo+O+O. +++OO+O+OOoXoOooOOOoO++OOO++OOOOoOooOOooXX  ++O+O+Oo  ",
"@OoO+++O  @+OOoOOoOoo+OooOoooOOO++o+ooOoooXooooXooX.. O+OOOOoo. ",
"@+oOO+++  @+O+OOOOooOO++OoXooXoOoO+ooOOOoooXoXXooXX.  O++oOooo. ",
"@+OoO+++  @O++OoXoXXXoooXXooooXXXXooXoooXXXX.XXXXX... O++OoOXo. ",
"@++o++O+. @++OoooXXXooXXXooXXoooXXXXooXX.X..XXX...... ++O+oOoX. ",
"@++O+++O........  ..... .   ..   . .       ..    .... ++O+OOoX. ",
"@++++O++X.                                            +OO+oOoX. ",
"+++OO+O++@@++@@@@@@@@@++++@@@@@@@+@@@@@@@++OoO+OOOOoOO+O++Oooo. ",
"++Oo++OO+++O++++++++++++O+++++++++++++++++++O++++++O+OO++++oOo  ",
"+O+O+OO+++++O+++O++++++++OOO++OoO+++O+++++OO++OoO+++OO++OO+Ooo  ",
"O++++O++++O++++++O++OO++OOo++O+OooOO++OO+OoOOooO++++++OOo+OOoX  ",
"O+++Oo+O+O++OO+OOOoOO++O++OO++++O+O++++OOoOOOO++OO+OOOoOOOOooX  ",
"OO++oO++OO+++OOoOOO+++OOOoO++O+++OOO+OO+++OOo+OOO++++OOoOOooXX  ",
"O+O+O+O+OooOOoOOooOOooOooOOOoooOooO+OOOoOooXXXooOOO+OoooooXooo  ",
"OOOO+OOOooOOoOooooXOOooOOOoOOOooOooOOooOooooXXXXooOOooXoXXXXoX  ",
"OX.   ...    .  ......   .... ..    ... .   ...    .  .  ..     ",
"X                                                               "
};
