/* XPM */
static char *stonebrick_mossy1687107238[] = {
/* columns rows colors chars-per-pixel */
"64 64 12 1 ",
"  c #8B898B",
". c #9C999C",
"X c #627941",
"o c #738552",
"O c #7A8F55",
"+ c gray50",
"@ c #787678",
"# c #5A6D41",
"$ c #5A595A",
"% c gray39",
"& c #6A6D6A",
"* c #525D39",
/* pixels */
" .......XXXXooOOOOOoOOOOOOOOOooOOOXX....oooOOOoo..oooXoXXoXXoXoX",
"        XXooOoOOOOooOOOOOOOOOOooOoXX     oOOoOo    oXooXoXXXooXX",
". +@@+++ oooOOoOOOoOoOOOoOOOOOoXoOX++++   oOoo  ++  ooXXooXoooX#",
".+@@++   XoooOoOOOOOoOOOooOOOOXXooX ++++++o Oo +++++ oXoooXoXoX#",
".@++  +  +XXoOoOOOoOooOOooOOOoXXoX++  ++  ++O+   +@@@ XoooooXX#$",
" ++  + ++++#XoOOoOooXoOooooOOoXoXX@@++   O++o@@++ ++@@@XoXoo#X#$",
".+ +++++++  #oOooOOooXoooOoOOXooX  +  ++oO +++@@+X@++#+XXXoX##$$",
".++@@++++  +#XooOoOoXXoooOOOoXooX++  ++@OoO+++++@X#+##@@XoXXX#$$",
".++++@@@ ++ #XXoooOOXXXoXoOOoooX@@@+@++OOooo+@@+X##X#@++#oX#X+$$",
".+++ +@@@@++ #XoXoOOX+XoXoOooXoX++@@+++OOOo+++@@X#XX#+++#XX## $$",
".+  +++++@@++#X#XXoO+@XXooOooXX  ++++  +oOo@@@+  XX#@+  +#X# +$$",
".+++  +++++@+###Xoo++++XoooOoXX++     ++oOo@+  ++X##   + ##X+@$$",
".++@@   +++++@###oX@@@+XXooOXX +++ ++++@oo++  ++@@#X@++++X#X+@$$",
".@@+++++  ++@@#+#X# @@@XXooooX  ++++@@@@+o   ++++@XX++@@@@#+@@$$",
".+@@+++@++@@++++## + +++XoXoX+++  @@@+++  ++@+@@+++X@@@+++X@@+$$",
".++++@++@@++++  ##+@@@+++XXoX@@++   +@@++  ++@@+++@@@@@@+++@++$$",
". ++++@++@@@+++++#@@@++@@Xoo@+++++++++@@oOOOO+++@@@@+++@@+@+++%$",
".  +++@@++@+@@++++@+++++@XoX+++++  +++OOooOOOO+++@++@@++++++++%$",
".++ +@@@X@++++++@@+  + ++@XX++@++++  OOoooOOooOO@@+@@++++@+++@%$",
".+++++@@X@@@++@@@+++  +@@+X+  +@@@++ooOooooOooooOo@++@@ ++@@@@%$",
".@++@@+@XX@@@@@@@@@+++  +++  ++++@@@oXoOXoooOooooX#X++@@  ++@@%$",
".@+++@@@#X@@@@@+++@@+  +   +@@+ ++@ooooXXXooXooooXX###++@   +@%$",
" @@+@@@&@#X@@@+++@+  ++++@@@++   ##ooXooXXoXXoooXX###@@+++++++%$",
" +@+@@@&@#X@++@@++++++@++++@@ XX##XoXXoooXXXXXo####@@@++++@+++$$",
" ++@@@&&@##X@@@@@@+@@@++@@@+####XXoXXoXoooX#XoXX##@@@++@@@++@@$$",
" +@@@@&&@@XXX@@@++@@@++++@##XX#XoooXXoXXoX##XX##@@@++@@@@++++@$$",
" +@@@&&&@&#XXX+++@@+++@@@++##XXXXoXXX#XXoX####@&&&@@+++++@@@@@%$",
"+@@&&&&&&&@X#XX+@@@@@@+@@@@@@#X#XXXXX##XX###X++@@&&&@@++@@&&@&$$",
"@@&&&&&&&&&&##XX@@@@@@@@@@@&@@#####X######XX@@@@&&&&&&@@@@@&&&%$",
"&&&&&&&&&&&&X###XX&&&&&&&&&&&&&###X######XX##&&&&&&&&&&&&&&&&&%$",
"%%%%$$%$$$$$$$****##%%%%$$$$$$$$$$$******####*##%%%%%%%%%%%%%%%$",
"$$$$$$$$$$$$$$$$******$$$$$$$$$$$$$$$$************####$$$$$$$$$$",
"OoOOOOOO....................  $$    ..............oOOOOOOOooooOO",
"oOOooOoo                      $$  +                oOOoOooooOOOO",
"XooOoXo   ++++      ++ +   ++ $$ +  ++        +++   OoXooOOOoOoX",
"ooXooXX@++++    ++    ++++   +$$. +++   ++      ++   oXXooOOOoXX",
"XXXoXX+++    ++++ +++  ++   ++$$. +@@+@+      ++   ++ XXXoOoooXX",
"XX##X@@@++    ++   +    ++++  $$.+++@@+   +++++@@@+  +oXoooOoXXo",
"+##  +++  ++    +++  +++  ++@+$$.@@+   +++  ++@@++@@++ XoXoOXX#+",
"++  ++   ++++++@@+++++@@+@@@++$$.++@@+  +++  +++ +++@@@oXXooX#  ",
"  +++  +++++++  +@@+@@@+@@+@@@$$.@++@@@@  +++   +@@@+@++XoXo##+ ",
"+++++++  +    ++@@+@+++++++++@$$.+@++++@@+    +++++@@+++ooXX#+  ",
"++@@@+@@+  ++++@@++++@@++@@+@@$$. @@+@@++@@@+++++@@+++  XoXX@ ++",
" +++@@++  +++@@+++  ++@@@@+@&@$$.  +@@+++  @@@+X@@     ++ooX+@++",
"+  ++@@@+++++++   ++@@+++o@@@&$$.@@@@++  +++++XX+++ +@@+ Xo#++++",
"++  ++++@+  ++  +++++@@+oo@@@&$$.++@++    ++@XX+  ++@@+  XX#@@++",
"++++     ++   +@@++@@++oo++&@&$$.+@+  ++ +@@Xo+@@+  +  ++ #X+@@@",
"@+++++       +++@@@+++ooo@@&&&$$.+@  ++++   oO ++@@  +@@++## +++",
"@@@@@++++  ++   ++@@@Xoo@@&&&&$$.  +++@@+++ooO++++@@@@+@@+#++  +",
"+@@++@@+  + ++@  ++@XooX@@&@&&$$.+@+@@++  OoO+    +@+++++@#   ++",
"@++ ++  +@@++@@@@++XXoo+@&@@&&$$ +@@@+   oOO  +@@+  +@@ +  +++@@",
"   +++++++@@@+  @@+XooX@@@@@@&$$ ++@+++ OoO  @@+@@++  +@  +@@@@+",
" +++@@++  +++ +++ XXoX+@++@@@@$$   +@@@oOOO++++ ++@@+   ++@@++  ",
"+++@@@@@++@+++@@++XoXX+++@@@@@$$  ++++oOoOO ++@@  ++@++  @++   +",
"+++++++@@@++@@++@XXo#+ @@@@++@$$ +++@XoXoO@@@@++@  +   +++  ++++",
"++@@@+@@@++++@@++XX#X@++@@++@@$$ +@@X#XXoo+@@++++++  +++   ++  +",
"+@@@&&@@@@@@@X+@@XX#@&&@++@@@@$$   #X#XoXoX@@@@+  ++++  ++++@@+ ",
"@++@@&&&@@&@X#@@XX#X&@@++@@@@@$$ + ##XXoXXo@@@@@++ +@@++++@++@@+",
"@@++@@@&&&#XX##@#X#&@@@@@@@@@@$$ +XX###XXXoX&&@@@@@@+++@@@@@++@@",
"@@@@+@&&##XX##XX###&&&&@@@@@@@$$+@#XX#X#XXXXX@&&&@+++@@@@@&&@@@@",
"@@@@@@@XX###XXXX##X&&&&&&&@@@@$$@@@@X#XX##XX#X&&@@@@@@@@@&&@@@@@",
"&&&&#######XXXX#X##X&&&&&&&&&&$$&&&&#XX####X##**&&&&&&&&&&&&&&&&",
"%%*###***###**###****%%%$$$$$$$$$$$$%*###**####***%%%%%%%%%%#*%%",
"$$$*******************$$$$$$$$$$$$$$$$**************$$$$$$$**##*"
};
